<svg xmlns="http://www.w3.org/2000/svg" xmlns:xlink="http://www.w3.org/1999/xlink" xmlns:lucid="lucid" width="1883.95" height="1455.78"><g transform="translate(0 0)" lucid:page-tab-id="FDQc8L-t--qg"><path d="M180.67 317.13v5m0 5.02v10.03m0 5v10.04m0 5v10.04m0 5v10.04m0 5v10.04m0 5v10.04m0 5v10.04m0 5v10.04m0 5v10.04m0 5v10.04m0 5v10.04m0 5v10.04m0 5v10.04m0 5v10.04m0 5v10.04m0 5v10.04m0 5v10.04m0 5v10.04m0 5v10.04m0 5v10.04m0 5V638m0 5v10.04m0 5v10.04m0 5v10.04m0 5v10.04m0 5v10.04m0 5v10.04m0 5v10.04m0 5v10.04m0 5v10.04m0 5v10.04m0 5v10.04m0 5v10.04m0 5v10.04m0 5v10.04m0 5v10.04m0 5v10.04m0 5v10.04m0 5v10.04m0 5v10.04m0 5v10.04m0 5v10.04m0 5v10.04m0 5v10.04m0 5v10.04m0 5V1014m0 5v10.04m0 5v10.04m0 5v10.04m0 5v10.04m0 5v10.04m0 5v10.04m0 5v10.04m0 5v10.04m0 5v10.04m0 5v10.03m0 5.02v10m0 5.03v10.02m0 5.02v10.02m0 5v10.03m0 5.02v10.02m0 5.02v10m0 5.03v10.02m0 5.02v10.02m0 5v5.02" stroke="#333" fill="none"/><path d="M181.17 317.14h-1v-.5h1z" stroke="#333" stroke-width=".05" fill="#333"/><path d="M180.68 1294.7v.52" stroke="#333" fill="none"/><path d="M161.75 390.4a8 8 0 0 1 8-8h24a8 8 0 0 1 8 8v824a8 8 0 0 1-8 8h-24a8 8 0 0 1-8-8z" stroke="#f2f2f2" fill="#d2d3d5"/><path d="M677.86 317.13v4.95m0 4.96v9.92m0 4.95v9.93m0 4.96v9.9m0 4.96v9.9m0 4.97v9.9m0 4.97v9.92m0 4.95v9.92m0 4.95v9.9m0 4.97v9.9m0 4.97v9.9m0 4.96v9.92m0 4.95v9.92m0 4.96v9.92m0 4.96v9.9m0 4.97v9.9m0 4.97v9.92m0 4.95v9.9m0 4.96v9.92m0 4.96v9.9m0 4.97v9.92m0 4.96v9.9m0 4.97v9.92m0 4.95v9.92m0 4.96v9.9m0 4.97v9.9m0 4.97v9.9m0 4.97v9.93m0 4.95v9.92m0 4.96v9.9m0 4.97v9.9m0 4.97v9.9m0 4.97V798m0 4.94v9.92m0 4.96v4.95l.03.3.06.28.1.28.16.25.2.22.22.2.25.15.26.1.3.08.28.02.3.03.28.06.28.12.25.15.22.2.2.23.15.25.1.27.08.3v4.95m0 4.96v9.92m0 4.96v9.92m0 4.96v9.92m0 4.96v9.92m0 4.96v9.92m0 4.96v9.92m0 4.96v9.92m0 4.96v9.92m0 4.96v9.92m0 4.96V980m0 4.96v9.92m0 4.96v9.92m0 4.96v9.93m0 4.96v9.93m0 4.96v9.9m0 4.97v9.92m0 4.95v9.92m0 4.96v9.92m0 4.96v9.93m0 4.96v9.9m0 4.97v9.92m0 4.95v9.92m.02 4.96v9.92m0 4.96v9.93m0 4.96v9.9m0 4.97v9.92m0 4.95v9.92m0 4.96v9.92m0 4.96v9.93m0 4.96v9.9m0 4.97v9.93m0 4.96v9.92m0 4.96v9.92m0 4.96v4.96" stroke="#333" fill="none"/><path d="M678.36 317.14h-1v-.5h1z" stroke="#333" stroke-width=".05" fill="#333"/><path d="M681.62 1332.16v.52" stroke="#333" fill="none"/><path d="M657.86 450.07a8 8 0 0 1 8-8h24a8 8 0 0 1 8 8v764a8 8 0 0 1-8 8h-24a8 8 0 0 1-8-8z" stroke="#f2f2f2" fill="#d2d3d5"/><path d="M202.25 452.4h227.4a.17.17 0 0 0 .15-.16.17.17 0 0 1 .17-.17h211.5" stroke="#333" fill="none"/><path d="M202.26 452.9h-.1v-1h.1z" stroke="#333" stroke-width=".05" fill="#333"/><path d="M656.25 452.07l-14.27 4.64v-9.26z" stroke="#333" fill="#333"/><use xlink:href="#a" transform="matrix(1,0,0,1,340.1209441244943,425.2356419831057) translate(0 15.223828541048864)"/><use xlink:href="#b" transform="matrix(1,0,0,1,340.1209441244943,425.2356419831057) translate(57.0364965131657 15.223828541048864)"/><path d="M681.62 520.68a8 8 0 0 1 8-8h24a8 8 0 0 1 8 8v64a8 8 0 0 1-8 8h-24a8 8 0 0 1-8-8z" stroke="#ccc" fill="#fff"/><path d="M853.82 481.72l1.9.46 1.82.75 1.67 1.03 1.5 1.27 1.27 1.5 1.03 1.67.75 1.8.46 1.93.16 48.57-.15 1.93-.45 1.9-.75 1.82-1.03 1.67-1.27 1.5-1.5 1.27-1.66 1.02-1.82.75-1.92.46-115.34.15v-1l115.22-.15 1.73-.42 1.68-.68 1.54-.94 1.37-1.17 1.16-1.36.95-1.54.7-1.67.42-1.75.14-1.82-.15-48.4-.4-1.74-.7-1.67-.94-1.54-1.17-1.36-1.38-1.17-1.54-.94-1.67-.7-1.74-.42-1.82-.13H698.36v-1h153.52z" stroke="#333" stroke-width=".05" fill="#333"/><path d="M698.38 482.57h-.1v-1h.1z" fill="#333"/><path d="M698.4 482.6h-.16v-1.05h.16zm-.1-1v.95h.05v-.95z" stroke="#333" stroke-width=".05" fill="#333"/><path d="M737.96 557.3l-14.27-4.62 14.26-4.64z" fill="#333"/><path d="M738.46 558l-16.4-5.32 16.4-5.33zm-13.15-5.32l12.16 3.94v-7.9z" stroke="#333" stroke-width=".05" fill="#333"/><use xlink:href="#c" transform="matrix(1,0,0,1,871.8610139981165,493.85040213881655) translate(0 15.223828541048864)"/><use xlink:href="#d" transform="matrix(1,0,0,1,863.8610139981165,493.85040213881643) translate(0 15.223828541048864)"/><path d="M1176.8 317.13v4.95m0 4.96v9.92m0 4.95v9.93m0 4.96v9.9m0 4.96v9.9m0 4.97v9.9m0 4.97v9.92m0 4.95v9.92m0 4.95v9.9m0 4.97v9.9m0 4.97v9.9m0 4.96v9.92m0 4.95v9.92m0 4.96v9.92m0 4.96v9.9m0 4.97v9.9m0 4.97v9.92m0 4.95v9.9m0 4.96v9.92m0 4.96v9.9m0 4.97v9.92m0 4.96v9.9m0 4.97v9.92m0 4.95v9.92m0 4.96v9.9m0 4.97v9.9m0 4.97v9.9m0 4.97v9.93m0 4.95v9.92m0 4.96v9.9m0 4.97v9.9m0 4.97v9.9m0 4.97V798m0 4.94v9.92m0 4.96v4.95l.03.3.07.28.12.28.15.25.2.22.22.2.24.15.27.1.3.08.3.02.28.03.3.06.26.12.26.15.22.2.2.23.15.25.1.27.08.3v4.95m0 4.96v9.92m0 4.96v9.92m0 4.96v9.92m0 4.96v9.92m0 4.96v9.92m0 4.96v9.92m0 4.96v9.92m0 4.96v9.92m0 4.96v9.92m0 4.96V980m0 4.96v9.92m0 4.96v9.92m0 4.96v9.93m0 4.96v9.93m0 4.96v9.9m0 4.97v9.92m0 4.95v9.92m0 4.96v9.92m0 4.96v9.93m0 4.96v9.9m0 4.97v9.92m0 4.95v9.92m0 4.96v9.92m0 4.96v9.93m0 4.96v9.9m0 4.97l.02 9.92m0 4.95v9.92m0 4.96v9.92m0 4.96v9.93m0 4.96v9.9m0 4.97v9.93m0 4.96v9.92m0 4.96v9.92m0 4.96v4.96" stroke="#333" fill="none"/><path d="M1177.3 317.14h-1v-.5h1z" stroke="#333" stroke-width=".05" fill="#333"/><path d="M1180.57 1332.16v.52" stroke="#333" fill="none"/><path d="M1161.5 628.85a8 8 0 0 1 8-8h24a8 8 0 0 1 8 8v104a8 8 0 0 1-8 8h-24a8 8 0 0 1-8-8z" stroke="#f2f2f2" fill="#d2d3d5"/><path d="M726.02 916.14h787" stroke="#333" fill="none"/><path d="M726.04 916.64h-.5l-.02-1h.52z" stroke="#333" stroke-width=".05" fill="#333"/><path d="M1527.8 916.15l-14.28 4.63v-9.27z" stroke="#333" fill="#333"/><use xlink:href="#e" transform="matrix(1,0,0,1,1074.6851360651053,889.3085128595745) translate(0 15.223828541048864)"/><use xlink:href="#f" transform="matrix(1,0,0,1,1074.6851360651053,889.3085128595745) translate(78.12784230441049 15.223828541048864)"/><path d="M85.63 200.68a8 8 0 0 1 8-8H267.7a8 8 0 0 1 8 8v108a8 8 0 0 1-8 8H93.64a8 8 0 0 1-8-8z" stroke="#000" stroke-opacity="0" fill="#ffbd50"/><use xlink:href="#g" transform="matrix(1,0,0,1,93.63403554339985,200.67657997264968) translate(42.674282629133906 57.80595713526222)"/><use xlink:href="#h" transform="matrix(1,0,0,1,93.63403554339985,200.67657997264968) translate(79.6237831506379 57.80595713526222)"/><path d="M582.83 200.68a8 8 0 0 1 8-8H764.9a8 8 0 0 1 8 8v108a8 8 0 0 1-8 8H590.83a8 8 0 0 1-8-8z" stroke="#000" stroke-opacity="0" fill="#ffbd50"/><use xlink:href="#i" transform="matrix(1,0,0,1,590.8256985673926,200.67657997264973) translate(27.873338214225285 57.80595713526222)"/><use xlink:href="#j" transform="matrix(1,0,0,1,590.8256985673926,200.67657997264973) translate(115.46321284102379 57.80595713526222)"/><path d="M1081.77 200.68a8 8 0 0 1 8-8h174.08a8 8 0 0 1 8 8v108a8 8 0 0 1-8 8h-174.08a8 8 0 0 1-8-8z" stroke="#000" stroke-opacity="0" fill="#ffbd50"/><use xlink:href="#k" transform="matrix(1,0,0,1,1089.773198658241,200.67657997264973) translate(52.162745209405685 57.80595713526222)"/><path d="M656.88 554.32H218.55" stroke="#333" fill="none"/><path d="M657.38 554.82h-.52v-1h.52z" stroke="#333" stroke-width=".05" fill="#333"/><path d="M203.8 554.32l14.25-4.64v9.27z" stroke="#333" fill="#333"/><use xlink:href="#l" transform="matrix(1,0,0,1,348.6715446301549,558.3196413046576) translate(0.0049999999999954525 14.4)"/><use xlink:href="#m" transform="matrix(1,0,0,1,348.6715446301549,558.3196413046576) translate(11.004999999999995 14.4)"/><use xlink:href="#n" transform="matrix(1,0,0,1,348.6715446301549,558.3196413046576) translate(51.254999999999995 14.4)"/><use xlink:href="#o" transform="matrix(1,0,0,1,348.6715446301549,558.3196413046576) translate(86.255 14.4)"/><use xlink:href="#p" transform="matrix(1,0,0,1,348.6715446301549,558.3196413046576) translate(156.20499999999998 14.4)"/><path d="M193.18 642.6h951.46M193.2 642.6h-.52" stroke="#333" fill="none"/><path d="M1159.4 642.6l-14.27 4.62v-9.27z" stroke="#333" fill="#333"/><use xlink:href="#q" transform="matrix(1,0,0,1,588.6735120812525,615.7537311953274) translate(0 15.223828541048864)"/><use xlink:href="#r" transform="matrix(1,0,0,1,588.6735120812525,615.7537311953274) translate(43.23990189784017 15.223828541048864)"/><use xlink:href="#s" transform="matrix(1,0,0,1,588.6735120812525,615.7537311953274) translate(87.11412998489071 15.223828541048864)"/><use xlink:href="#t" transform="matrix(1,0,0,1,588.6735120812525,615.7537311953274) translate(103.50088987282524 15.223828541048864)"/><path d="M1160.55 680.85H218.57" stroke="#333" fill="none"/><path d="M1161.05 681.35h-.5v-1h.5z" stroke="#333" stroke-width=".05" fill="#333"/><path d="M203.8 680.85l14.27-4.64v9.28z" stroke="#333" fill="#333"/><use xlink:href="#u" transform="matrix(1,0,0,1,651.1152064268135,684.846757689649) translate(0.004999999999999005 14.4)"/><use xlink:href="#v" transform="matrix(1,0,0,1,651.1152064268135,684.846757689649) translate(35.004999999999995 14.4)"/><path d="M685.07 852.13a8 8 0 0 1 8-8h24a8 8 0 0 1 8 8V976.8a8 8 0 0 1-8 8h-24a8 8 0 0 1-8-8z" stroke="#ccc" fill="#fff"/><path d="M857.27 813.18l1.9.45 1.82.75 1.66 1.03 1.5 1.28 1.26 1.5 1.03 1.67.75 1.8.46 1.94.15 48.58-.14 1.94-.46 1.9-.75 1.82-1.03 1.67-1.27 1.5-1.5 1.28-1.66 1.02-1.83.75-1.92.47-115.37.14v-1l115.25-.14 1.73-.42 1.67-.7 1.54-.93 1.37-1.17 1.17-1.38.96-1.54.7-1.66.4-1.76.15-1.8-.14-48.45-.4-1.73-.7-1.67-.95-1.54-1.16-1.37-1.37-1.18-1.54-.94-1.67-.7-1.75-.4-1.8-.16H701.8v-1h153.53z" stroke="#333" stroke-width=".05" fill="#333"/><path d="M701.83 814.02h-.52v-1h.53z" stroke="#333" stroke-width=".05" fill="#333"/><path d="M741.38 888.8l-14.26-4.64 14.26-4.63z" fill="#333"/><path d="M741.88 889.5l-16.38-5.34 16.38-5.32zm-13.14-5.34l12.14 3.95v-7.88z" stroke="#333" stroke-width=".05" fill="#333"/><use xlink:href="#c" transform="matrix(1,0,0,1,875.3105759467685,825.3327240435701) translate(0 15.223828541048864)"/><use xlink:href="#d" transform="matrix(1,0,0,1,867.3105759467684,825.3327240435699) translate(0 15.223828541048864)"/><path d="M1529.4 317.13v5.02m0 5.02v10.05m0 5.02v10.05m0 5v10.06m0 5.02v10.05m0 5.02v10.05m0 5.03v10.04m0 5.03v10.04m0 5.03v10.04m0 5.04v10.04m0 5.03v10.05m0 5.03v10.04m0 5.03V503m0 5.02v10.04m0 5.03v10.03m0 5.03v10.04m0 5.03v10.04m0 5.03v10.04m0 5.03v10.04m0 5.04v10.04m0 5.03v10.05m0 5.03v10.04m0 5.03v10.04m0 5.02v10.04m0 5.03v10.03m0 5.03v10.04m0 5.03v10.04m0 5.03v10.05m0 5.02v10.05m0 5.02v10.05m0 5v10.06m0 5.02v10.05m0 5.02v10.05m0 5.02v10.05m0 5.02v10.04m0 5.02v10.05m0 5.03v10.05m0 5.02v10.05m0 5.02v10.05m0 5.02v10.05m0 5v10.06m0 5.02v10.05m0 5.02v10.05m0 5.02v10.05m0 5.02v10.04m0 5.02v10.05m0 5.03v10.05m0 5.02v10.05m0 5.02v10.05m0 5.02v10.05m0 5v10.06m0 5.02v10.05m0 5.02v10.05m0 5.02v10.05m0 5.02v10.04m0 5.02V1151m0 5.03v10.05m0 5.02v10.05m0 5.02v10.05m0 5.02v10.05m0 5v10.06m0 5.02v10.05m0 5.02v10.05m0 5.02v10.05m0 5.02v10.04m0 5.02v10.05m0 5.03v10.05m0 5.02v5.03" stroke="#333" fill="none"/><path d="M1529.9 317.14h-1v-.5h1z" stroke="#333" stroke-width=".05" fill="#333"/><path d="M1529.4 1326.8v.53" stroke="#333" fill="none"/><path d="M1434.37 200.68a8 8 0 0 1 8-8h174.08a8 8 0 0 1 8 8v108a8 8 0 0 1-8 8h-174.08a8 8 0 0 1-8-8z" stroke="#000" stroke-opacity="0" fill="#ffbd50"/><use xlink:href="#w" transform="matrix(1,0,0,1,1442.3700953519476,200.67657997264973) translate(35.77598532147115 57.80595713526222)"/><path d="M647.4 941.97H209.05M647.37 941.97h.52" stroke="#333" fill="none"/><path d="M194.3 941.97l14.26-4.63v9.27z" stroke="#333" fill="#333"/><g><use xlink:href="#l" transform="matrix(1,0,0,1,380.8067820460907,945.9743909773986) translate(0.005000000000002558 14.4)"/><use xlink:href="#x" transform="matrix(1,0,0,1,380.8067820460907,945.9743909773986) translate(11.005000000000003 14.4)"/><use xlink:href="#y" transform="matrix(1,0,0,1,380.8067820460907,945.9743909773986) translate(52.955000000000005 14.4)"/><use xlink:href="#p" transform="matrix(1,0,0,1,380.8067820460907,945.9743909773986) translate(72.95500000000001 14.4)"/></g><path d="M202.7 813.52h438.33" stroke="#333" fill="none"/><path d="M202.7 814.02h-.5v-1h.5z" stroke="#333" stroke-width=".05" fill="#333"/><path d="M655.8 813.52l-14.27 4.64v-9.27z" stroke="#333" fill="#333"/><g><use xlink:href="#a" transform="matrix(1,0,0,1,334.7869437707171,786.6875948507254) translate(0 15.223828541048864)"/><use xlink:href="#z" transform="matrix(1,0,0,1,334.7869437707171,786.6875948507254) translate(57.0364965131657 15.223828541048864)"/></g><path d="M28.8 449.58h78.24v81.4H28.8z" stroke="#282c33" stroke-width="3" fill="#cfe4ff"/><g><use xlink:href="#A" transform="matrix(1,0,0,1,33.787735575899234,454.57868660284925) translate(22.606383952305578 45.50361421735994)"/></g><path d="M28.8 620.85h78.24v81.4H28.8z" stroke="#282c33" stroke-width="3" fill="#cfe4ff"/><g><use xlink:href="#B" transform="matrix(1,0,0,1,33.787735575899234,625.8467576896489) translate(22.606383952305578 45.50361421735994)"/></g><path d="M28.8 813.52h78.24v81.4H28.8z" stroke="#282c33" stroke-width="3" fill="#cfe4ff"/><g><use xlink:href="#C" transform="matrix(1,0,0,1,33.787735575899234,818.5233376622987) translate(22.606383952305578 45.50361421735994)"/></g><defs><path fill="#333" d="M24-248c93 1 206-16 204 79-1 75-69 88-152 82V0H24v-248zm52 121c47 0 100 7 100-41 0-47-54-39-100-39v80" id="D"/><path fill="#333" d="M140-251c80 0 125 45 125 126S219 4 139 4C58 4 15-44 15-125s44-126 125-126zm-1 214c52 0 73-35 73-88 0-50-21-86-72-86-52 0-73 35-73 86s22 88 72 88" id="E"/><path fill="#333" d="M169-182c-1-43-94-46-97-3 18 66 151 10 154 114 3 95-165 93-204 36-6-8-10-19-12-30l50-8c3 46 112 56 116 5-17-69-150-10-154-114-4-87 153-88 188-35 5 8 8 18 10 28" id="F"/><path fill="#333" d="M136-208V0H84v-208H4v-40h212v40h-80" id="G"/><g id="a"><use transform="matrix(0.05286051576753077,0,0,0.05286051576753077,0,0)" xlink:href="#D"/><use transform="matrix(0.05286051576753077,0,0,0.05286051576753077,12.686523784207385,0)" xlink:href="#E"/><use transform="matrix(0.05286051576753077,0,0,0.05286051576753077,27.487468199116,0)" xlink:href="#F"/><use transform="matrix(0.05286051576753077,0,0,0.05286051576753077,40.17399198332339,0)" xlink:href="#G"/></g><path fill="#333" d="M4 7l51-268h42L46 7H4" id="H"/><path fill="#333" d="M190-63c-7 42-38 67-86 67-59 0-84-38-90-98-12-110 154-137 174-36l-49 2c-2-19-15-32-35-32-30 0-35 28-38 64-6 74 65 87 74 30" id="I"/><path fill="#333" d="M25 0v-261h50V0H25" id="J"/><path fill="#333" d="M25-224v-37h50v37H25zM25 0v-190h50V0H25" id="K"/><path fill="#333" d="M185-48c-13 30-37 53-82 52C43 2 14-33 14-96s30-98 90-98c62 0 83 45 84 108H66c0 31 8 55 39 56 18 0 30-7 34-22zm-45-69c5-46-57-63-70-21-2 6-4 13-4 21h74" id="L"/><path fill="#333" d="M135-194c87-1 58 113 63 194h-50c-7-57 23-157-34-157-59 0-34 97-39 157H25l-1-190h47c2 12-1 28 3 38 12-26 28-41 61-42" id="M"/><path fill="#333" d="M115-3C79 11 28 4 28-45v-112H4v-33h27l15-45h31v45h36v33H77v99c-1 23 16 31 38 25v30" id="N"/><path fill="#333" d="M85 4C-2 5 27-109 22-190h50c7 57-23 150 33 157 60-5 35-97 40-157h50l1 190h-47c-2-12 1-28-3-38-12 25-28 42-61 42" id="O"/><path fill="#333" d="M135-194c53 0 70 44 70 98 0 56-19 98-73 100-31 1-45-17-59-34 3 33 2 69 2 105H25l-1-265h48c2 10 0 23 3 31 11-24 29-35 60-35zM114-30c33 0 39-31 40-66 0-38-9-64-40-64-56 0-55 130 0 130" id="P"/><path fill="#333" d="M110-194c64 0 96 36 96 99 0 64-35 99-97 99-61 0-95-36-95-99 0-62 34-99 96-99zm-1 164c35 0 45-28 45-65 0-40-10-65-43-65-34 0-45 26-45 65 0 36 10 65 43 65" id="Q"/><path fill="#333" d="M133-34C117-15 103 5 69 4 32 3 11-16 11-54c-1-60 55-63 116-61 1-26-3-47-28-47-18 1-26 9-28 27l-52-2c7-38 36-58 82-57s74 22 75 68l1 82c-1 14 12 18 25 15v27c-30 8-71 5-69-32zm-48 3c29 0 43-24 42-57-32 0-66-3-65 30 0 17 8 27 23 27" id="R"/><path fill="#333" d="M88-194c31-1 46 15 58 34l-1-101h50l1 261h-48c-2-10 0-23-3-31C134-8 116 4 84 4 32 4 16-41 15-95c0-56 19-97 73-99zm17 164c33 0 40-30 41-66 1-37-9-64-41-64s-38 30-39 65c0 43 13 65 39 65" id="S"/><g id="b"><use transform="matrix(0.05286051576753077,0,0,0.05286051576753077,0,0)" xlink:href="#H"/><use transform="matrix(0.05286051576753077,0,0,0.05286051576753077,5.286051576753077,0)" xlink:href="#I"/><use transform="matrix(0.05286051576753077,0,0,0.05286051576753077,15.858154730259228,0)" xlink:href="#J"/><use transform="matrix(0.05286051576753077,0,0,0.05286051576753077,21.144206307012308,0)" xlink:href="#K"/><use transform="matrix(0.05286051576753077,0,0,0.05286051576753077,26.430257883765385,0)" xlink:href="#L"/><use transform="matrix(0.05286051576753077,0,0,0.05286051576753077,37.00236103727154,0)" xlink:href="#M"/><use transform="matrix(0.05286051576753077,0,0,0.05286051576753077,48.57881399036078,0)" xlink:href="#N"/><use transform="matrix(0.05286051576753077,0,0,0.05286051576753077,54.86921536669694,0)" xlink:href="#H"/><use transform="matrix(0.05286051576753077,0,0,0.05286051576753077,60.155266943450016,0)" xlink:href="#O"/><use transform="matrix(0.05286051576753077,0,0,0.05286051576753077,71.73171989653926,0)" xlink:href="#P"/><use transform="matrix(0.05286051576753077,0,0,0.05286051576753077,83.3081728496285,0)" xlink:href="#J"/><use transform="matrix(0.05286051576753077,0,0,0.05286051576753077,88.59422442638159,0)" xlink:href="#Q"/><use transform="matrix(0.05286051576753077,0,0,0.05286051576753077,100.17067737947083,0)" xlink:href="#R"/><use transform="matrix(0.05286051576753077,0,0,0.05286051576753077,110.742780532977,0)" xlink:href="#S"/></g><path fill="#333" d="M114-157C55-157 80-60 75 0H25v-261h50l-1 109c12-26 28-41 61-42 86-1 58 113 63 194h-50c-7-57 23-157-34-157" id="T"/><path fill="#333" d="M67-93c0 74 22 123 53 168H70C40 30 18-18 18-93s22-123 52-168h50c-32 44-53 94-53 168" id="U"/><path fill="#333" d="M14-72v-43h91v43H14" id="V"/><path fill="#333" d="M147 0L96-86 75-71V0H25v-261h50v150l67-79h53l-66 74L201 0h-54" id="W"/><path fill="#333" d="M123 10C108 53 80 86 19 72V37c35 8 53-11 59-39L3-190h52l48 148c12-52 28-100 44-148h51" id="X"/><path fill="#333" d="M102-93c0 74-22 123-52 168H0C30 29 54-18 53-93c0-74-22-123-53-168h50c30 45 52 94 52 168" id="Y"/><g id="c"><use transform="matrix(0.05286051576753077,0,0,0.05286051576753077,0,0)" xlink:href="#R"/><use transform="matrix(0.05286051576753077,0,0,0.05286051576753077,10.572103153506154,0)" xlink:href="#O"/><use transform="matrix(0.05286051576753077,0,0,0.05286051576753077,22.148556106595393,0)" xlink:href="#N"/><use transform="matrix(0.05286051576753077,0,0,0.05286051576753077,28.438957482931556,0)" xlink:href="#T"/><use transform="matrix(0.05286051576753077,0,0,0.05286051576753077,40.015410436020794,0)" xlink:href="#L"/><use transform="matrix(0.05286051576753077,0,0,0.05286051576753077,50.58751358952695,0)" xlink:href="#M"/><use transform="matrix(0.05286051576753077,0,0,0.05286051576753077,62.16396654261619,0)" xlink:href="#N"/><use transform="matrix(0.05286051576753077,0,0,0.05286051576753077,68.45436791895234,0)" xlink:href="#K"/><use transform="matrix(0.05286051576753077,0,0,0.05286051576753077,73.74041949570542,0)" xlink:href="#I"/><use transform="matrix(0.05286051576753077,0,0,0.05286051576753077,84.31252264921157,0)" xlink:href="#R"/><use transform="matrix(0.05286051576753077,0,0,0.05286051576753077,94.88462580271772,0)" xlink:href="#N"/><use transform="matrix(0.05286051576753077,0,0,0.05286051576753077,101.17502717905388,0)" xlink:href="#L"/><use transform="matrix(0.05286051576753077,0,0,0.05286051576753077,111.74713033256003,0)" xlink:href="#U"/><use transform="matrix(0.05286051576753077,0,0,0.05286051576753077,118.0375317088962,0)" xlink:href="#R"/><use transform="matrix(0.05286051576753077,0,0,0.05286051576753077,128.60963486240234,0)" xlink:href="#P"/><use transform="matrix(0.05286051576753077,0,0,0.05286051576753077,140.1860878154916,0)" xlink:href="#K"/><use transform="matrix(0.05286051576753077,0,0,0.05286051576753077,145.47213939224466,0)" xlink:href="#V"/><use transform="matrix(0.05286051576753077,0,0,0.05286051576753077,151.7625407685808,0)" xlink:href="#W"/><use transform="matrix(0.05286051576753077,0,0,0.05286051576753077,162.33464392208697,0)" xlink:href="#L"/><use transform="matrix(0.05286051576753077,0,0,0.05286051576753077,172.90674707559313,0)" xlink:href="#X"/><use transform="matrix(0.05286051576753077,0,0,0.05286051576753077,183.4788502290993,0)" xlink:href="#Y"/></g><path fill="#333" d="M135-150c-39-12-60 13-60 57V0H25l-1-190h47c2 13-1 29 3 40 6-28 27-53 61-41v41" id="Z"/><path fill="#333" d="M137-138c1-29-70-34-71-4 15 46 118 7 119 86 1 83-164 76-172 9l43-7c4 19 20 25 44 25 33 8 57-30 24-41C81-84 22-81 20-136c-2-80 154-74 161-7" id="aa"/><g id="e"><use transform="matrix(0.05286051576753077,0,0,0.05286051576753077,0,0)" xlink:href="#P"/><use transform="matrix(0.05286051576753077,0,0,0.05286051576753077,11.57645295308924,0)" xlink:href="#Z"/><use transform="matrix(0.05286051576753077,0,0,0.05286051576753077,18.976925160543548,0)" xlink:href="#Q"/><use transform="matrix(0.05286051576753077,0,0,0.05286051576753077,30.553378113632785,0)" xlink:href="#I"/><use transform="matrix(0.05286051576753077,0,0,0.05286051576753077,41.125481267138944,0)" xlink:href="#L"/><use transform="matrix(0.05286051576753077,0,0,0.05286051576753077,51.6975844206451,0)" xlink:href="#aa"/><use transform="matrix(0.05286051576753077,0,0,0.05286051576753077,62.26968757415126,0)" xlink:href="#aa"/></g><path fill="#333" d="M121-226c-27-7-43 5-38 36h38v33H83V0H34v-157H6v-33h28c-9-59 32-81 87-68v32" id="ab"/><g id="f"><use transform="matrix(0.05286051576753077,0,0,0.05286051576753077,0,0)" xlink:href="#ab"/><use transform="matrix(0.05286051576753077,0,0,0.05286051576753077,6.2904013763361615,0)" xlink:href="#K"/><use transform="matrix(0.05286051576753077,0,0,0.05286051576753077,11.576452953089237,0)" xlink:href="#J"/><use transform="matrix(0.05286051576753077,0,0,0.05286051576753077,16.862504529842315,0)" xlink:href="#L"/></g><path fill="#333" d="M199 0l-22-63H83L61 0H9l90-248h61L250 0h-51zm-33-102l-36-108c-10 38-24 72-36 108h72" id="ac"/><path fill="#333" d="M24 0v-248h52V0H24" id="ad"/><g id="g"><use transform="matrix(0.05286051576753077,0,0,0.05286051576753077,0,0)" xlink:href="#ac"/><use transform="matrix(0.05286051576753077,0,0,0.05286051576753077,13.69087358379047,0)" xlink:href="#D"/><use transform="matrix(0.05286051576753077,0,0,0.05286051576753077,26.377397367997855,0)" xlink:href="#ad"/></g><path fill="#333" d="M67-125c0 53 21 87 73 88 37 1 54-22 65-47l45 17C233-25 199 4 140 4 58 4 20-42 15-125 8-235 124-281 211-232c18 10 29 29 36 50l-46 12c-8-25-30-41-62-41-52 0-71 34-72 86" id="ae"/><g id="h"><use transform="matrix(0.05286051576753077,0,0,0.05286051576753077,0,0)" xlink:href="#ae"/><use transform="matrix(0.05286051576753077,0,0,0.05286051576753077,13.69087358379047,0)" xlink:href="#J"/><use transform="matrix(0.05286051576753077,0,0,0.05286051576753077,18.976925160543548,0)" xlink:href="#K"/><use transform="matrix(0.05286051576753077,0,0,0.05286051576753077,24.262976737296626,0)" xlink:href="#L"/><use transform="matrix(0.05286051576753077,0,0,0.05286051576753077,34.83507989080278,0)" xlink:href="#M"/><use transform="matrix(0.05286051576753077,0,0,0.05286051576753077,46.41153284389202,0)" xlink:href="#N"/></g><path fill="#333" d="M12 0v-35l95-120H19v-35h142v35L67-36h103V0H12" id="af"/><g id="i"><use transform="matrix(0.05286051576753077,0,0,0.05286051576753077,0,0)" xlink:href="#ae"/><use transform="matrix(0.05286051576753077,0,0,0.05286051576753077,13.69087358379047,0)" xlink:href="#Q"/><use transform="matrix(0.05286051576753077,0,0,0.05286051576753077,25.267326536879708,0)" xlink:href="#Z"/><use transform="matrix(0.05286051576753077,0,0,0.05286051576753077,32.667798744334014,0)" xlink:href="#L"/><use transform="matrix(0.05286051576753077,0,0,0.05286051576753077,43.23990189784017,0)" xlink:href="#af"/><use transform="matrix(0.05286051576753077,0,0,0.05286051576753077,52.75479473599571,0)" xlink:href="#L"/><use transform="matrix(0.05286051576753077,0,0,0.05286051576753077,63.326897889501865,0)" xlink:href="#Z"/><use transform="matrix(0.05286051576753077,0,0,0.05286051576753077,70.72737009695618,0)" xlink:href="#Q"/></g><g id="j"><use transform="matrix(0.05286051576753077,0,0,0.05286051576753077,0,0)" xlink:href="#ac"/><use transform="matrix(0.05286051576753077,0,0,0.05286051576753077,13.69087358379047,0)" xlink:href="#D"/><use transform="matrix(0.05286051576753077,0,0,0.05286051576753077,26.377397367997855,0)" xlink:href="#ad"/></g><path fill="#333" d="M195-6C206 82 75 100 31 46c-4-6-6-13-8-21l49-6c3 16 16 24 34 25 40 0 42-37 40-79-11 22-30 35-61 35-53 0-70-43-70-97 0-56 18-96 73-97 30 0 46 14 59 34l2-30h47zm-90-29c32 0 41-27 41-63 0-35-9-62-40-62-32 0-39 29-40 63 0 36 9 62 39 62" id="ag"/><g id="k"><use transform="matrix(0.05286051576753077,0,0,0.05286051576753077,0,0)" xlink:href="#F"/><use transform="matrix(0.05286051576753077,0,0,0.05286051576753077,12.686523784207385,0)" xlink:href="#N"/><use transform="matrix(0.05286051576753077,0,0,0.05286051576753077,18.976925160543544,0)" xlink:href="#Q"/><use transform="matrix(0.05286051576753077,0,0,0.05286051576753077,30.55337811363278,0)" xlink:href="#Z"/><use transform="matrix(0.05286051576753077,0,0,0.05286051576753077,37.95385032108709,0)" xlink:href="#R"/><use transform="matrix(0.05286051576753077,0,0,0.05286051576753077,48.525953474593244,0)" xlink:href="#ag"/><use transform="matrix(0.05286051576753077,0,0,0.05286051576753077,60.10240642768249,0)" xlink:href="#L"/></g><path fill="#333" d="M39-94c74 12-11 154 75 146v23c-44 4-70-10-70-52C44-23 55-84 6-82v-22c81 4-7-162 84-157h24v23c-82-15-2 131-75 144" id="ah"/><use transform="matrix(0.05,0,0,0.05,0,0)" xlink:href="#ah" id="l"/><path fill="#333" d="M232-93c-1 65-40 97-104 97C67 4 28-28 28-90v-158h33c8 89-33 224 67 224 102 0 64-133 71-224h33v155" id="ai"/><path fill="#333" d="M233-177c-1 41-23 64-60 70L243 0h-38l-65-103H63V0H30v-248c88 3 205-21 203 71zM63-129c60-2 137 13 137-47 0-61-80-42-137-45v92" id="aj"/><path fill="#333" d="M30 0v-248h33v221h125V0H30" id="ak"/><g id="m"><use transform="matrix(0.05,0,0,0.05,0,0)" xlink:href="#ai"/><use transform="matrix(0.05,0,0,0.05,12.950000000000001,0)" xlink:href="#aj"/><use transform="matrix(0.05,0,0,0.05,25.900000000000002,0)" xlink:href="#ak"/></g><path fill="#333" d="M141-36C126-15 110 5 73 4 37 3 15-17 15-53c-1-64 63-63 125-63 3-35-9-54-41-54-24 1-41 7-42 31l-33-3c5-37 33-52 76-52 45 0 72 20 72 64v82c-1 20 7 32 28 27v20c-31 9-61-2-59-35zM48-53c0 20 12 33 32 33 41-3 63-29 60-74-43 2-92-5-92 41" id="al"/><path fill="#333" d="M117-194c89-4 53 116 60 194h-32v-121c0-31-8-49-39-48C34-167 62-67 57 0H25l-1-190h30c1 10-1 24 2 32 11-22 29-35 61-36" id="am"/><path fill="#333" d="M85-194c31 0 48 13 60 33l-1-100h32l1 261h-30c-2-10 0-23-3-31C134-8 116 4 85 4 32 4 16-35 15-94c0-66 23-100 70-100zm9 24c-40 0-46 34-46 75 0 40 6 74 45 74 42 0 51-32 51-76 0-42-9-74-50-73" id="an"/><g id="n"><use transform="matrix(0.05,0,0,0.05,0,0)" xlink:href="#al"/><use transform="matrix(0.05,0,0,0.05,10,0)" xlink:href="#am"/><use transform="matrix(0.05,0,0,0.05,20,0)" xlink:href="#an"/></g><path fill="#333" d="M106-169C34-169 62-67 57 0H25v-261h32l-1 103c12-21 28-36 61-36 89 0 53 116 60 194h-32v-121c2-32-8-49-39-48" id="ao"/><path fill="#333" d="M100-194c63 0 86 42 84 106H49c0 40 14 67 53 68 26 1 43-12 49-29l28 8c-11 28-37 45-77 45C44 4 14-33 15-96c1-61 26-98 85-98zm52 81c6-60-76-77-97-28-3 7-6 17-6 28h103" id="ap"/><path fill="#333" d="M114-163C36-179 61-72 57 0H25l-1-190h30c1 12-1 29 2 39 6-27 23-49 58-41v29" id="aq"/><path fill="#333" d="M135-143c-3-34-86-38-87 0 15 53 115 12 119 90S17 21 10-45l28-5c4 36 97 45 98 0-10-56-113-15-118-90-4-57 82-63 122-42 12 7 21 19 24 35" id="ar"/><g id="o"><use transform="matrix(0.05,0,0,0.05,0,0)" xlink:href="#ao"/><use transform="matrix(0.05,0,0,0.05,10,0)" xlink:href="#ap"/><use transform="matrix(0.05,0,0,0.05,20,0)" xlink:href="#al"/><use transform="matrix(0.05,0,0,0.05,30,0)" xlink:href="#an"/><use transform="matrix(0.05,0,0,0.05,40,0)" xlink:href="#ap"/><use transform="matrix(0.05,0,0,0.05,50,0)" xlink:href="#aq"/><use transform="matrix(0.05,0,0,0.05,55.95,0)" xlink:href="#ar"/></g><path fill="#333" d="M76-40C78 24 84 88 6 75V52C86 64 9-79 80-94c-40-6-34-59-34-106 1-29-11-41-40-38v-23c44-4 70 10 70 52 0 47-12 108 38 105v22c-26 1-39 14-38 42" id="as"/><use transform="matrix(0.05,0,0,0.05,0,0)" xlink:href="#as" id="p"/><path fill="#333" d="M238-95c0 69-44 99-111 99C63 4 22-25 22-93v-155h51v151c-1 38 19 59 55 60 90 1 49-130 58-211h52v153" id="at"/><g id="q"><use transform="matrix(0.05286051576753077,0,0,0.05286051576753077,0,0)" xlink:href="#D"/><use transform="matrix(0.05286051576753077,0,0,0.05286051576753077,12.686523784207385,0)" xlink:href="#at"/><use transform="matrix(0.05286051576753077,0,0,0.05286051576753077,26.377397367997855,0)" xlink:href="#G"/></g><path fill="#333" d="M240-174c0 40-23 61-54 70L253 0h-59l-57-94H76V0H24v-248c93 4 217-23 216 74zM76-134c48-2 112 12 112-38 0-48-66-32-112-35v73" id="au"/><path fill="#333" d="M24 0v-248h52v208h133V0H24" id="av"/><g id="r"><use transform="matrix(0.05286051576753077,0,0,0.05286051576753077,0,0)" xlink:href="#at"/><use transform="matrix(0.05286051576753077,0,0,0.05286051576753077,13.69087358379047,0)" xlink:href="#au"/><use transform="matrix(0.05286051576753077,0,0,0.05286051576753077,27.38174716758094,0)" xlink:href="#av"/></g><path fill="#333" d="M125-100v72H85v-72H15v-39h70v-72h40v72h71v39h-71" id="aw"/><use transform="matrix(0.05286051576753077,0,0,0.05286051576753077,0,0)" xlink:href="#aw" id="s"/><g id="t"><use transform="matrix(0.05286051576753077,0,0,0.05286051576753077,0,0)" xlink:href="#T"/><use transform="matrix(0.05286051576753077,0,0,0.05286051576753077,11.57645295308924,0)" xlink:href="#L"/><use transform="matrix(0.05286051576753077,0,0,0.05286051576753077,22.148556106595393,0)" xlink:href="#R"/><use transform="matrix(0.05286051576753077,0,0,0.05286051576753077,32.72065926010155,0)" xlink:href="#S"/><use transform="matrix(0.05286051576753077,0,0,0.05286051576753077,44.297112213190786,0)" xlink:href="#L"/><use transform="matrix(0.05286051576753077,0,0,0.05286051576753077,54.86921536669694,0)" xlink:href="#Z"/><use transform="matrix(0.05286051576753077,0,0,0.05286051576753077,62.26968757415125,0)" xlink:href="#aa"/></g><path fill="#333" d="M101-251c82-7 93 87 43 132L82-64C71-53 59-42 53-27h129V0H18c2-99 128-94 128-182 0-28-16-43-45-43s-46 15-49 41l-32-3c6-41 34-60 81-64" id="ax"/><path fill="#333" d="M101-251c68 0 85 55 85 127S166 4 100 4C33 4 14-52 14-124c0-73 17-127 87-127zm-1 229c47 0 54-49 54-102s-4-102-53-102c-51 0-55 48-55 102 0 53 5 102 54 102" id="ay"/><g id="u"><use transform="matrix(0.05,0,0,0.05,0,0)" xlink:href="#ax"/><use transform="matrix(0.05,0,0,0.05,10,0)" xlink:href="#ay"/><use transform="matrix(0.05,0,0,0.05,20,0)" xlink:href="#ay"/></g><path fill="#333" d="M140-251c81 0 123 46 123 126C263-46 219 4 140 4 59 4 17-45 17-125s42-126 123-126zm0 227c63 0 89-41 89-101s-29-99-89-99c-61 0-89 39-89 99S79-25 140-24" id="az"/><path fill="#333" d="M194 0L95-120 63-95V0H30v-248h33v124l119-124h40L117-140 236 0h-42" id="aA"/><g id="v"><use transform="matrix(0.05,0,0,0.05,0,0)" xlink:href="#az"/><use transform="matrix(0.05,0,0,0.05,14,0)" xlink:href="#aA"/></g><path fill="#333" d="M230 0l2-204L168 0h-37L68-204 70 0H24v-248h70l56 185 57-185h69V0h-46" id="aB"/><path fill="#333" d="M231 0h-52l-39-155L100 0H48L-1-190h46L77-45c9-52 24-97 36-145h53l37 145 32-145h46" id="aC"/><g id="w"><use transform="matrix(0.05286051576753077,0,0,0.05286051576753077,0,0)" xlink:href="#aB"/><use transform="matrix(0.05286051576753077,0,0,0.05286051576753077,15.8052942144917,0)" xlink:href="#K"/><use transform="matrix(0.05286051576753077,0,0,0.05286051576753077,21.091345791244777,0)" xlink:href="#S"/><use transform="matrix(0.05286051576753077,0,0,0.05286051576753077,32.667798744334014,0)" xlink:href="#S"/><use transform="matrix(0.05286051576753077,0,0,0.05286051576753077,44.24425169742325,0)" xlink:href="#J"/><use transform="matrix(0.05286051576753077,0,0,0.05286051576753077,49.530303274176326,0)" xlink:href="#L"/><use transform="matrix(0.05286051576753077,0,0,0.05286051576753077,60.10240642768249,0)" xlink:href="#aC"/><use transform="matrix(0.05286051576753077,0,0,0.05286051576753077,74.9033508425911,0)" xlink:href="#R"/><use transform="matrix(0.05286051576753077,0,0,0.05286051576753077,85.47545399609724,0)" xlink:href="#Z"/><use transform="matrix(0.05286051576753077,0,0,0.05286051576753077,92.87592620355156,0)" xlink:href="#L"/></g><path fill="#333" d="M127-220V0H93v-220H8v-28h204v28h-85" id="aD"/><path fill="#333" d="M143 0L79-87 56-68V0H24v-261h32v163l83-92h37l-77 82L181 0h-38" id="aE"/><g id="x"><use transform="matrix(0.05,0,0,0.05,0,0)" xlink:href="#aD"/><use transform="matrix(0.05,0,0,0.05,8.950000000000001,0)" xlink:href="#al"/><use transform="matrix(0.05,0,0,0.05,18.950000000000003,0)" xlink:href="#ar"/><use transform="matrix(0.05,0,0,0.05,27.950000000000003,0)" xlink:href="#aE"/></g><path fill="#333" d="M33 0v-248h34V0H33" id="aF"/><g id="y"><use transform="matrix(0.05,0,0,0.05,0,0)" xlink:href="#aF"/><use transform="matrix(0.05,0,0,0.05,5,0)" xlink:href="#an"/></g><g id="z"><use transform="matrix(0.05286051576753077,0,0,0.05286051576753077,0,0)" xlink:href="#H"/><use transform="matrix(0.05286051576753077,0,0,0.05286051576753077,5.286051576753077,0)" xlink:href="#I"/><use transform="matrix(0.05286051576753077,0,0,0.05286051576753077,15.858154730259228,0)" xlink:href="#J"/><use transform="matrix(0.05286051576753077,0,0,0.05286051576753077,21.144206307012308,0)" xlink:href="#K"/><use transform="matrix(0.05286051576753077,0,0,0.05286051576753077,26.430257883765385,0)" xlink:href="#L"/><use transform="matrix(0.05286051576753077,0,0,0.05286051576753077,37.00236103727154,0)" xlink:href="#M"/><use transform="matrix(0.05286051576753077,0,0,0.05286051576753077,48.57881399036078,0)" xlink:href="#N"/><use transform="matrix(0.05286051576753077,0,0,0.05286051576753077,54.86921536669694,0)" xlink:href="#H"/><use transform="matrix(0.05286051576753077,0,0,0.05286051576753077,60.155266943450016,0)" xlink:href="#P"/><use transform="matrix(0.05286051576753077,0,0,0.05286051576753077,71.73171989653926,0)" xlink:href="#Z"/><use transform="matrix(0.05286051576753077,0,0,0.05286051576753077,79.13219210399357,0)" xlink:href="#Q"/><use transform="matrix(0.05286051576753077,0,0,0.05286051576753077,90.70864505708282,0)" xlink:href="#I"/><use transform="matrix(0.05286051576753077,0,0,0.05286051576753077,101.28074821058897,0)" xlink:href="#L"/><use transform="matrix(0.05286051576753077,0,0,0.05286051576753077,111.85285136409512,0)" xlink:href="#aa"/><use transform="matrix(0.05286051576753077,0,0,0.05286051576753077,122.42495451760126,0)" xlink:href="#aa"/></g><path fill="#3a414a" d="M27 0v-27h64v-190l-56 39v-29l58-41h29v221h61V0H27" id="aG"/><use transform="matrix(0.11893616047694423,0,0,0.11893616047694423,0,0)" xlink:href="#aG" id="A"/><path fill="#3a414a" d="M101-251c82-7 93 87 43 132L82-64C71-53 59-42 53-27h129V0H18c2-99 128-94 128-182 0-28-16-43-45-43s-46 15-49 41l-32-3c6-41 34-60 81-64" id="aH"/><use transform="matrix(0.11893616047694423,0,0,0.11893616047694423,0,0)" xlink:href="#aH" id="B"/><path fill="#3a414a" d="M126-127c33 6 58 20 58 59 0 88-139 92-164 29-3-8-5-16-6-25l32-3c6 27 21 44 54 44 32 0 52-15 52-46 0-38-36-46-79-43v-28c39 1 72-4 72-42 0-27-17-43-46-43-28 0-47 15-49 41l-32-3c6-42 35-63 81-64 48-1 79 21 79 65 0 36-21 52-52 59" id="aI"/><use transform="matrix(0.11893616047694423,0,0,0.11893616047694423,0,0)" xlink:href="#aI" id="C"/></defs></g></svg>